<svg width="335" height="98" viewBox="0 0 335 98" fill="none" xmlns="http://www.w3.org/2000/svg">
<g clip-path="url(#clip0)">
<path d="M56.023 4.13049H16.0183C5.37262 4.13049 -1.52588e-05 9.29036 -1.52588e-05 19.5106V74.2099C-1.52588e-05 75.5496 0.720633 76.3745 2.27325 76.3745H14.3661C15.8132 76.3745 16.7448 75.5496 16.7448 74.2099V72.1331C16.7448 67.0669 18.8833 64.3056 24.1974 63.7732H56.023C67.6999 63.7732 72.9729 58.7186 72.9729 47.6735V20.2302C72.9729 9.18506 67.6999 4.13049 56.023 4.13049ZM56.2457 43.0284C56.2457 49.019 54.8864 50.2534 47.7502 50.2534H30.8004C23.6701 50.2534 19.1177 52.6286 16.7389 57.2736V23.5356C16.7389 18.8905 17.8756 17.6503 23.5587 17.6503H47.7502C54.8864 17.6503 56.2457 18.8905 56.2457 24.8753V43.0284Z" fill="white"/>
<path d="M111.32 34.3698C102.121 34.3698 98.1898 39.0149 98.1898 46.86V74.4144C98.1898 75.6546 97.5687 76.3742 96.1216 76.3742H85.1654C83.7182 76.3742 82.9976 75.6546 82.9976 74.4144V24.0501C82.9976 22.8099 83.7182 22.0844 85.1654 22.0844H94.3639C95.7114 22.0844 96.4321 22.8099 96.4321 24.0501V32.176C98.1898 25.4717 103.258 22.061 112.251 22.061H115.972C117.313 22.061 118.034 22.7865 118.034 24.0267V32.41C118.034 33.7497 117.313 34.3698 115.972 34.3698H111.32Z" fill="white"/>
<path d="M182.634 61.6133C182.634 71.8335 178.088 76.3733 167.237 76.3733H140.362C129.611 76.3733 124.959 71.8335 124.959 61.6133V36.8552C124.959 26.6408 129.611 22.0952 140.362 22.0952H167.237C178.088 22.0952 182.634 26.6408 182.634 36.8552V61.6133ZM167.442 40.769C167.442 35.3985 166.411 34.3689 160.001 34.3689H147.698C141.188 34.3689 140.151 35.3985 140.151 40.769V57.6936C140.151 63.0582 141.188 64.0937 147.698 64.0937H160.001C166.411 64.0937 167.442 63.0582 167.442 57.6936V40.769Z" fill="white"/>
<path d="M197.932 34.37H192.759C191.411 34.37 190.69 33.7499 190.69 32.4102V24.0503C190.69 22.81 191.411 22.0846 192.759 22.0846H197.926V15.3803C197.932 5.15999 203.305 0.00012207 213.95 0.00012207H226.664C228.111 0.00012207 228.732 0.725546 228.732 1.95994V10.3199C228.732 11.6654 228.111 12.2797 226.664 12.2797H219.95C214.261 12.2797 213.124 13.5199 213.124 18.165V22.0846H226.664C228.111 22.0846 228.732 22.81 228.732 24.0503V32.4102C228.732 33.7499 228.111 34.37 226.664 34.37H213.124V74.4146C213.124 75.6548 212.404 76.3744 210.956 76.3744H200C198.553 76.3744 197.932 75.6548 197.932 74.4146V34.37Z" fill="white"/>
<path d="M240.105 34.37H234.943C233.601 34.37 232.881 33.7499 232.881 32.4102V24.0503C232.881 22.81 233.601 22.0846 234.943 22.0846H240.116V15.3803C240.105 5.15999 245.489 0.00012207 256.123 0.00012207H268.837C270.284 0.00012207 270.905 0.725546 270.905 1.95994V10.3199C270.905 11.6654 270.284 12.2797 268.837 12.2797H262.117C256.433 12.2797 255.297 13.5199 255.297 18.165V22.0846H268.837C270.284 22.0846 270.905 22.81 270.905 24.0503V32.4102C270.905 33.7499 270.284 34.37 268.837 34.37H255.297V74.4146C255.297 75.6548 254.57 76.3744 253.123 76.3744H242.167C240.72 76.3744 240.105 75.6548 240.105 74.4146V34.37Z" fill="white"/>
<path d="M317.103 97.4294H294.569C284.445 97.4294 280.103 93.5098 280.103 83.8043V82.7747C280.073 82.4977 280.106 82.2175 280.2 81.9549C280.293 81.6924 280.444 81.4541 280.642 81.258C280.84 81.0618 281.08 80.9128 281.344 80.8219C281.608 80.731 281.889 80.7006 282.166 80.733H292.712C294.159 80.733 294.88 81.4584 294.88 82.7981V83.3129C294.88 85.378 296.022 86.2029 298.295 86.2029H311.32C317.519 86.2029 319.071 84.6585 319.071 79.3933V63.1122C316.693 67.7573 312.146 70.1324 305.01 70.1324H294.464C283.713 70.1324 278.955 65.5927 278.955 55.3724V24.0505C278.941 23.78 278.986 23.5097 279.086 23.2581C279.186 23.0065 279.34 22.7796 279.537 22.5929C279.733 22.4062 279.968 22.2641 280.224 22.1764C280.481 22.0887 280.753 22.0574 281.023 22.0848H292.085C293.427 22.0848 294.153 22.8102 294.153 24.0505V51.482C294.153 56.8466 295.29 57.8821 301.7 57.8821H309.556C316.376 57.8821 319.065 55.0916 319.065 49.4169V24.0505C319.065 22.8102 319.786 22.0848 321.134 22.0848H332.201C332.466 22.0593 332.733 22.0927 332.983 22.1825C333.233 22.2724 333.46 22.4164 333.648 22.6044C333.835 22.7924 333.979 23.0196 334.068 23.2696C334.158 23.5197 334.19 23.7863 334.164 24.0505V81.0196C334.158 91.8483 328.369 97.4294 317.103 97.4294Z" fill="white"/>
</g>
<defs>
<clipPath id="clip0">
<rect width="334.173" height="97.6421" fill="white"/>
</clipPath>
</defs>
</svg>
