<svg width="231" height="58" viewBox="0 0 231 58" fill="none" xmlns="http://www.w3.org/2000/svg">
<path d="M13.6912 16.2128C13.6912 9.07183 3.26872 12.1718 3.26872 7.18972C3.26872 5.11387 4.90416 4.03442 6.98312 4.08978C9.33927 4.11746 10.5589 5.5844 10.7252 6.88526H13.4972C13.1923 3.95139 10.7807 1.93089 7.09399 1.93089C3.26872 1.93089 0.690813 4.08978 0.690813 7.27276C0.690813 14.4414 11.141 11.12 11.141 16.3235C11.141 18.1502 9.69962 19.5341 7.26031 19.5341C4.57153 19.5341 3.43503 17.9288 3.26872 16.3235H0.579936C0.635374 19.5065 3.37959 21.6654 7.26031 21.6654C11.4459 21.6654 13.6912 18.9529 13.6912 16.2128Z" fill="#D4C2FF"/>
<path d="M30.8749 6.30402H28.3524V14.6351C28.3524 17.9011 26.6061 19.5065 24.0004 19.5065C21.4503 19.5065 19.7594 17.9288 19.7594 14.8565V6.30402H17.2646V15.1887C17.2646 19.5341 20.0089 21.693 23.5015 21.693C25.525 21.693 27.3822 20.8073 28.3524 19.2297V21.4716H30.8749V6.30402Z" fill="#D4C2FF"/>
<path d="M34.1914 13.8325C34.1914 18.5377 37.3237 21.7207 41.3708 21.7207C44.1704 21.7207 46.1385 20.2814 47.0532 18.6484V21.4716H49.6034V6.30402H47.0532V9.07183C46.1662 7.49418 44.2259 6.05492 41.3985 6.05492C37.3237 6.05492 34.1914 9.09951 34.1914 13.8325ZM47.0532 13.8601C47.0532 17.4306 44.6694 19.5065 41.8974 19.5065C39.1255 19.5065 36.7693 17.4029 36.7693 13.8325C36.7693 10.262 39.1255 8.24149 41.8974 8.24149C44.6694 8.24149 47.0532 10.345 47.0532 13.8601Z" fill="#D4C2FF"/>
<path d="M63.7786 9.09951V6.30402H61.2562V28.6679H63.7786V18.6761C64.7211 20.2261 66.6892 21.7207 69.4611 21.7207C73.5359 21.7207 76.6682 18.5377 76.6682 13.8325C76.6682 9.09951 73.5359 6.05492 69.4611 6.05492C66.6892 6.05492 64.6934 7.49418 63.7786 9.09951ZM74.0903 13.8325C74.0903 17.4029 71.7341 19.5065 68.9345 19.5065C66.1902 19.5065 63.7786 17.4306 63.7786 13.8601C63.7786 10.345 66.1902 8.24149 68.9345 8.24149C71.7341 8.24149 74.0903 10.262 74.0903 13.8325Z" fill="#D4C2FF"/>
<path d="M79.9884 21.4716H82.5109V0.989836H79.9884V21.4716Z" fill="#D4C2FF"/>
<path d="M85.8675 13.8325C85.8675 18.5377 88.9998 21.7207 93.0469 21.7207C95.8465 21.7207 97.8146 20.2814 98.7293 18.6484V21.4716H101.28V6.30402H98.7293V9.07183C97.8423 7.49418 95.902 6.05492 93.0746 6.05492C88.9998 6.05492 85.8675 9.09951 85.8675 13.8325ZM98.7293 13.8601C98.7293 17.4306 96.3455 19.5065 93.5735 19.5065C90.8016 19.5065 88.4454 17.4029 88.4454 13.8325C88.4454 10.262 90.8016 8.24149 93.5735 8.24149C96.3455 8.24149 98.7293 10.345 98.7293 13.8601Z" fill="#D4C2FF"/>
<path d="M106.013 21.4716H108.536V8.37988H111.724V6.30402H108.536V5.22458C108.536 3.25944 109.284 2.4291 111.557 2.4291V0.325562C107.677 0.325562 106.013 1.84786 106.013 5.22458V6.30402H104.045V8.37988H106.013V21.4716Z" fill="#D4C2FF"/>
<path d="M129.079 13.8601C129.079 9.07183 125.725 6.05492 121.401 6.05492C117.104 6.05492 113.722 9.07183 113.722 13.8601C113.722 18.6761 116.993 21.7207 121.29 21.7207C125.614 21.7207 129.079 18.6761 129.079 13.8601ZM116.3 13.8601C116.3 10.0406 118.712 8.24149 121.373 8.24149C123.978 8.24149 126.501 10.0406 126.501 13.8601C126.501 17.7074 123.923 19.5065 121.29 19.5065C118.656 19.5065 116.3 17.7074 116.3 13.8601Z" fill="#D4C2FF"/>
<path d="M134.918 13.2235C134.918 9.70843 136.747 8.62898 139.159 8.62898H139.824V6.02724C137.413 6.02724 135.777 7.07901 134.918 8.76737V6.30402H132.395V21.4716H134.918V13.2235Z" fill="#D4C2FF"/>
<path d="M164.662 21.4716H167.157V12.5316C167.157 8.18613 164.468 6.02724 161.003 6.02724C158.675 6.02724 156.513 7.2174 155.626 9.40397C154.628 7.13437 152.549 6.02724 150.054 6.02724C148.058 6.02724 146.256 6.88526 145.259 8.49059V6.30402H142.736V21.4716H145.259V13.1128C145.259 9.84682 147.005 8.21381 149.555 8.21381C152.05 8.21381 153.713 9.79146 153.713 12.8914V21.4716H156.208V13.1128C156.208 9.84682 157.954 8.21381 160.504 8.21381C162.999 8.21381 164.662 9.79146 164.662 12.8914V21.4716Z" fill="#D4C2FF"/>
<path d="M170.352 13.8325C170.352 18.5377 173.484 21.7207 177.531 21.7207C180.331 21.7207 182.299 20.2814 183.214 18.6484V21.4716H185.764V6.30402H183.214V9.07183C182.327 7.49418 180.387 6.05492 177.559 6.05492C173.484 6.05492 170.352 9.09951 170.352 13.8325ZM183.214 13.8601C183.214 17.4306 180.83 19.5065 178.058 19.5065C175.286 19.5065 172.93 17.4029 172.93 13.8325C172.93 10.262 175.286 8.24149 178.058 8.24149C180.83 8.24149 183.214 10.345 183.214 13.8601Z" fill="#D4C2FF"/>
<path d="M196.474 13.8325C196.474 18.5377 199.607 21.7207 203.681 21.7207C206.453 21.7207 208.422 20.3091 209.336 18.6208V21.4716H211.886V0.989836H209.336V9.01647C208.283 7.27276 206.093 6.05492 203.709 6.05492C199.607 6.05492 196.474 9.09951 196.474 13.8325ZM209.336 13.8601C209.336 17.4306 206.952 19.5065 204.18 19.5065C201.408 19.5065 199.052 17.4029 199.052 13.8325C199.052 10.262 201.408 8.24149 204.18 8.24149C206.952 8.24149 209.336 10.345 209.336 13.8601Z" fill="#D4C2FF"/>
<path d="M222.608 8.18613C225.213 8.18613 227.431 9.81914 227.403 12.7807H217.812C218.09 9.81914 220.141 8.18613 222.608 8.18613ZM229.704 16.794H226.987C226.433 18.427 224.992 19.5895 222.719 19.5895C220.141 19.5895 217.979 17.9011 217.785 14.8289H229.926C229.981 14.303 230.009 13.8601 230.009 13.3066C230.009 9.15487 227.126 6.05492 222.719 6.05492C218.284 6.05492 215.207 9.07183 215.207 13.8601C215.207 18.6761 218.394 21.7207 222.719 21.7207C226.488 21.7207 228.928 19.5618 229.704 16.794Z" fill="#D4C2FF"/>
<path d="M7.59294 43.5526C10.1986 43.5526 12.4161 45.1856 12.3884 48.1471H2.79749C3.07468 45.1856 5.12592 43.5526 7.59294 43.5526ZM14.6891 52.1604H11.9726C11.4182 53.7934 9.97681 54.9559 7.70382 54.9559C5.12592 54.9559 2.9638 53.2675 2.76977 50.1953H14.9109C14.9663 49.6694 14.994 49.2266 14.994 48.673C14.994 44.5213 12.1112 41.4213 7.70382 41.4213C3.26872 41.4213 0.191864 44.4382 0.191864 49.2266C0.191864 54.0425 3.37959 57.0871 7.70382 57.0871C11.4737 57.0871 13.913 54.9282 14.6891 52.1604Z" fill="#D4C2FF"/>
<path d="M29.245 52.714C29.1342 47.2891 20.3194 49.2542 20.3194 45.6561C20.3194 44.4382 21.4282 43.5526 23.2854 43.5526C25.3089 43.5526 26.4731 44.6597 26.584 46.182H29.1064C28.9401 43.2204 26.7226 41.4213 23.3685 41.4213C19.9868 41.4213 17.7969 43.3311 17.7969 45.6561C17.7969 51.3024 26.778 49.3373 26.778 52.714C26.778 53.9595 25.6692 54.9559 23.6734 54.9559C21.539 54.9559 20.2362 53.8488 20.0976 52.3819H17.492C17.6583 55.1497 20.1531 57.0871 23.7012 57.0871C27.0552 57.0871 29.245 55.205 29.245 52.714Z" fill="#D4C2FF"/>
<path d="M33.3603 52.6863C33.3603 55.7309 34.8849 56.838 37.5736 56.838H39.8466V54.7068H37.9894C36.4371 54.7068 35.8828 54.1809 35.8828 52.6863V43.7463H39.8466V41.6704H35.8828V37.8509H33.3603V41.6704H31.3922V43.7463H33.3603V52.6863Z" fill="#D4C2FF"/>
<path d="M56.3745 41.6704H53.8521V50.0015C53.8521 53.2675 52.1057 54.8729 49.5001 54.8729C46.9499 54.8729 45.2591 53.2952 45.2591 50.223V41.6704H42.7643V50.5551C42.7643 54.9006 45.5085 57.0594 49.0012 57.0594C51.0247 57.0594 52.8819 56.1737 53.8521 54.5961V56.838H56.3745V41.6704Z" fill="#D4C2FF"/>
<path d="M59.6911 49.1989C59.6911 53.9041 62.8234 57.0871 66.8982 57.0871C69.6701 57.0871 71.6382 55.6755 72.5529 53.9872V56.838H75.1031V36.3563H72.5529V44.3829C71.4996 42.6392 69.3098 41.4213 66.9259 41.4213C62.8234 41.4213 59.6911 44.4659 59.6911 49.1989ZM72.5529 49.2266C72.5529 52.797 70.1691 54.8729 67.3971 54.8729C64.6252 54.8729 62.269 52.7693 62.269 49.1989C62.269 45.6284 64.6252 43.6079 67.3971 43.6079C70.1691 43.6079 72.5529 45.7114 72.5529 49.2266Z" fill="#D4C2FF"/>
<path d="M93.7799 49.2266C93.7799 44.4382 90.4259 41.4213 86.1016 41.4213C81.8051 41.4213 78.4234 44.4382 78.4234 49.2266C78.4234 54.0425 81.6943 57.0871 85.9908 57.0871C90.315 57.0871 93.7799 54.0425 93.7799 49.2266ZM81.0013 49.2266C81.0013 45.407 83.4129 43.6079 86.0739 43.6079C88.6795 43.6079 91.202 45.407 91.202 49.2266C91.202 53.0738 88.6241 54.8729 85.9908 54.8729C83.3574 54.8729 81.0013 53.0738 81.0013 49.2266Z" fill="#D4C2FF"/>
<path d="M108.018 52.714C107.907 47.2891 99.0923 49.2542 99.0923 45.6561C99.0923 44.4382 100.201 43.5526 102.058 43.5526C104.082 43.5526 105.246 44.6597 105.357 46.182H107.879C107.713 43.2204 105.495 41.4213 102.141 41.4213C98.7597 41.4213 96.5698 43.3311 96.5698 45.6561C96.5698 51.3024 105.551 49.3373 105.551 52.714C105.551 53.9595 104.442 54.9559 102.446 54.9559C100.312 54.9559 99.0091 53.8488 98.8705 52.3819H96.2649C96.4312 55.1497 98.926 57.0871 102.474 57.0871C105.828 57.0871 108.018 55.205 108.018 52.714Z" fill="#D4C2FF"/>
<path d="M133.383 49.2266C133.383 44.4382 130.029 41.4213 125.705 41.4213C121.408 41.4213 118.026 44.4382 118.026 49.2266C118.026 54.0425 121.297 57.0871 125.594 57.0871C129.918 57.0871 133.383 54.0425 133.383 49.2266ZM120.604 49.2266C120.604 45.407 123.016 43.6079 125.677 43.6079C128.283 43.6079 130.805 45.407 130.805 49.2266C130.805 53.0738 128.227 54.8729 125.594 54.8729C122.96 54.8729 120.604 53.0738 120.604 49.2266Z" fill="#D4C2FF"/>
<path d="M147.815 56.838H150.31V47.898C150.31 43.5525 147.621 41.3937 144.101 41.3937C142.049 41.3937 140.22 42.2517 139.222 43.8293V41.6704H136.7V56.838H139.222V48.4516C139.222 45.1856 140.996 43.5802 143.574 43.5802C146.124 43.5802 147.815 45.1579 147.815 48.2578V56.838Z" fill="#D4C2FF"/>
<path d="M154.43 56.838H156.953V36.3563H154.43V56.838Z" fill="#D4C2FF"/>
<path d="M161.252 56.838H163.774V41.6704H161.252V56.838ZM162.555 39.2071C163.469 39.2071 164.218 38.4598 164.218 37.4911C164.218 36.5223 163.469 35.775 162.555 35.775C161.584 35.775 160.836 36.5223 160.836 37.4911C160.836 38.4598 161.584 39.2071 162.555 39.2071Z" fill="#D4C2FF"/>
<path d="M179.189 56.838H181.684V47.898C181.684 43.5525 178.995 41.3937 175.474 41.3937C173.423 41.3937 171.594 42.2517 170.596 43.8293V41.6704H168.073V56.838H170.596V48.4516C170.596 45.1856 172.37 43.5802 174.948 43.5802C177.498 43.5802 179.189 45.1579 179.189 48.2578V56.838Z" fill="#D4C2FF"/>
<path d="M192.263 43.5526C194.868 43.5526 197.086 45.1856 197.058 48.1471H187.467C187.744 45.1856 189.796 43.5526 192.263 43.5526ZM199.359 52.1604H196.642C196.088 53.7934 194.646 54.9559 192.373 54.9559C189.796 54.9559 187.633 53.2675 187.439 50.1953H199.581C199.636 49.6694 199.664 49.2266 199.664 48.673C199.664 44.5213 196.781 41.4213 192.373 41.4213C187.938 41.4213 184.862 44.4382 184.862 49.2266C184.862 54.0425 188.049 57.0871 192.373 57.0871C196.143 57.0871 198.583 54.9282 199.359 52.1604Z" fill="#D4C2FF"/>
<path d="M205.46 55.288C205.46 54.3193 204.712 53.572 203.797 53.572C202.827 53.572 202.079 54.3193 202.079 55.288C202.079 56.2568 202.827 57.0041 203.797 57.0041C204.712 57.0041 205.46 56.2568 205.46 55.288Z" fill="#D4C2FF"/>
</svg>
